<?xml version="1.0" encoding="utf-8"?>
<svg xmlns="http://www.w3.org/2000/svg" viewBox="0 0 32 32" width="512" height="512">
  <path d="M16 2.125L15.09375 4.1875L11.84375 11.46875L3.90625 12.3125L1.65625 12.5625L3.34375 14.0625L9.25 19.40625L7.59375 27.21875L7.125 29.40625L9.09375 28.28125L16 24.28125L22.90625 28.28125L24.875 29.40625L24.40625 27.21875L22.75 19.40625L28.65625 14.0625L30.34375 12.5625L28.09375 12.3125L20.15625 11.46875L16.90625 4.1875 Z M 16 7.03125L18.5625 12.8125L18.8125 13.34375L19.375 13.40625L25.65625 14.0625L20.96875 18.28125L20.53125 18.6875L20.65625 19.25L21.96875 25.40625L16.5 22.28125L16 21.96875L15.5 22.28125L10.03125 25.40625L11.34375 19.25L11.46875 18.6875L11.03125 18.28125L6.34375 14.0625L12.625 13.40625L13.1875 13.34375L13.4375 12.8125Z" />
</svg>