<?xml version="1.0" encoding="utf-8"?>
<svg xmlns="http://www.w3.org/2000/svg" viewBox="0 0 48 48" width="144" height="144">
  <path d="M20.5 3C18.203405 3 16.305701 4.7666235 16.050781 7L12.5 7C10.019 7 8 9.018 8 11.5L8 38.5C8 40.981 10.019 43 12.5 43L24.767578 43C24.053578 42.088 23.452 41.084 23 40L12.5 40C11.673 40 11 39.327 11 38.5L11 11.5C11 10.673 11.673 10 12.5 10L16.769531 10C17.581237 11.2019 18.954719 12 20.5 12L27.5 12C29.045281 12 30.418763 11.2019 31.230469 10L35.5 10C36.327 10 37 10.673 37 11.5L37 22.169922C38.045 22.331922 39.053 22.603047 40 22.998047L40 11.5C40 9.018 37.981 7 35.5 7L31.949219 7C31.694299 4.7666235 29.796595 3 27.5 3L20.5 3 z M 20.5 6L27.5 6C28.346499 6 29 6.6535009 29 7.5C29 8.3464991 28.346499 9 27.5 9L20.5 9C19.653501 9 19 8.3464991 19 7.5C19 6.6535009 19.653501 6 20.5 6 z M 16.5 16 A 1.50015 1.50015 0 1 0 16.5 19L31.5 19 A 1.50015 1.50015 0 1 0 31.5 16L16.5 16 z M 16.5 22 A 1.50015 1.50015 0 1 0 16.5 25L23.5 25 A 1.50015 1.50015 0 1 0 23.5 22L16.5 22 z M 35 24C28.925 24 24 28.925 24 35C24 41.075 28.925 46 35 46C41.075 46 46 41.075 46 35C46 28.925 41.075 24 35 24 z M 41 30C41.25575 30 41.511531 30.097469 41.707031 30.292969C42.098031 30.683969 42.098031 31.316031 41.707031 31.707031L33.707031 39.707031C33.512031 39.902031 33.256 40 33 40C32.744 40 32.487969 39.902031 32.292969 39.707031L28.292969 35.707031C27.901969 35.316031 27.901969 34.683969 28.292969 34.292969C28.683969 33.901969 29.316031 33.901969 29.707031 34.292969L33 37.585938L40.292969 30.292969C40.488469 30.097469 40.74425 30 41 30 z" />
</svg>