<?xml version="1.0" encoding="utf-8"?>
<svg xmlns="http://www.w3.org/2000/svg" viewBox="0 0 48 48" width="144" height="144">
  <path d="M20.5 4C18.203405 4 16.305701 5.7666235 16.050781 8L12.5 8C10.032499 8 8 10.032499 8 12.5L8 39.5C8 41.967501 10.032499 44 12.5 44L35.5 44C37.967501 44 40 41.967501 40 39.5L40 12.5C40 10.032499 37.967501 8 35.5 8L31.949219 8C31.694299 5.7666235 29.796595 4 27.5 4L20.5 4 z M 20.5 7L27.5 7C28.346499 7 29 7.6535009 29 8.5C29 9.3464991 28.346499 10 27.5 10L20.5 10C19.653501 10 19 9.3464991 19 8.5C19 7.6535009 19.653501 7 20.5 7 z M 12.5 11L16.769531 11C17.581237 12.2019 18.954719 13 20.5 13L27.5 13C29.045281 13 30.418763 12.2019 31.230469 11L35.5 11C36.346499 11 37 11.653501 37 12.5L37 39.5C37 40.346499 36.346499 41 35.5 41L12.5 41C11.653501 41 11 40.346499 11 39.5L11 12.5C11 11.653501 11.653501 11 12.5 11 z M 16.5 20 A 1.5 1.5 0 0 0 16.5 23 A 1.5 1.5 0 0 0 16.5 20 z M 22.5 20 A 1.50015 1.50015 0 1 0 22.5 23L31.5 23 A 1.50015 1.50015 0 1 0 31.5 20L22.5 20 z M 16.5 26 A 1.5 1.5 0 0 0 16.5 29 A 1.5 1.5 0 0 0 16.5 26 z M 22.5 26 A 1.50015 1.50015 0 1 0 22.5 29L31.5 29 A 1.50015 1.50015 0 1 0 31.5 26L22.5 26 z M 16.5 32 A 1.5 1.5 0 0 0 16.5 35 A 1.5 1.5 0 0 0 16.5 32 z M 22.5 32 A 1.50015 1.50015 0 1 0 22.5 35L31.5 35 A 1.50015 1.50015 0 1 0 31.5 32L22.5 32 z" />
</svg>